<svg class="main-svg" xmlns="http://www.w3.org/2000/svg" xmlns:xlink="http://www.w3.org/1999/xlink" width="700" height="450" style="" viewBox="0 0 700 450"><rect x="0" y="0" width="700" height="450" style="fill: rgb(255, 255, 255); fill-opacity: 1;"/><defs id="defs-734c25"><g class="clips"><clipPath class="plotclip" id="clip734c25xyplot"><rect width="580" height="330"/></clipPath><clipPath class="axesclip" id="clip734c25x"><rect x="60" y="0" width="580" height="450"/></clipPath><clipPath class="axesclip" id="clip734c25y"><rect x="0" y="60" width="700" height="330"/></clipPath><clipPath class="axesclip" id="clip734c25xy"><rect x="60" y="60" width="580" height="330"/></clipPath></g><g class="gradients"/></defs><g class="bglayer"><rect class="bg" x="60" y="60" width="580" height="330" style="fill: rgb(255, 255, 255); fill-opacity: 1; stroke-width: 0;"/></g><g class="layer-below"><g class="imagelayer"/><g class="shapelayer"/></g><g class="cartesianlayer"><g class="subplot xy"><g class="layer-subplot"><g class="shapelayer"/><g class="imagelayer"/></g><g class="gridlayer" transform="translate(60,60)"><path class="xgrid crisp" d="M0,0v330" transform="translate(110.39,0)" style="stroke: rgb(238, 238, 238); stroke-opacity: 1; stroke-width: 1px;"/><path class="xgrid crisp" d="M0,0v330" transform="translate(220.78,0)" style="stroke: rgb(238, 238, 238); stroke-opacity: 1; stroke-width: 1px;"/><path class="xgrid crisp" d="M0,0v330" transform="translate(331.18,0)" style="stroke: rgb(238, 238, 238); stroke-opacity: 1; stroke-width: 1px;"/><path class="xgrid crisp" d="M0,0v330" transform="translate(441.57,0)" style="stroke: rgb(238, 238, 238); stroke-opacity: 1; stroke-width: 1px;"/><path class="xgrid crisp" d="M0,0v330" transform="translate(551.96,0)" style="stroke: rgb(238, 238, 238); stroke-opacity: 1; stroke-width: 1px;"/><path class="ygrid crisp" d="M0,0h580" transform="translate(0,317.25)" style="stroke: rgb(238, 238, 238); stroke-opacity: 1; stroke-width: 1px;"/><path class="ygrid crisp" d="M0,0h580" transform="translate(0,272.48)" style="stroke: rgb(238, 238, 238); stroke-opacity: 1; stroke-width: 1px;"/><path class="ygrid crisp" d="M0,0h580" transform="translate(0,227.71)" style="stroke: rgb(238, 238, 238); stroke-opacity: 1; stroke-width: 1px;"/><path class="ygrid crisp" d="M0,0h580" transform="translate(0,182.94)" style="stroke: rgb(238, 238, 238); stroke-opacity: 1; stroke-width: 1px;"/><path class="ygrid crisp" d="M0,0h580" transform="translate(0,138.17)" style="stroke: rgb(238, 238, 238); stroke-opacity: 1; stroke-width: 1px;"/><path class="ygrid crisp" d="M0,0h580" transform="translate(0,93.4)" style="stroke: rgb(238, 238, 238); stroke-opacity: 1; stroke-width: 1px;"/><path class="ygrid crisp" d="M0,0h580" transform="translate(0,48.63)" style="stroke: rgb(238, 238, 238); stroke-opacity: 1; stroke-width: 1px;"/><path class="ygrid crisp" d="M0,0h580" transform="translate(0,3.86)" style="stroke: rgb(238, 238, 238); stroke-opacity: 1; stroke-width: 1px;"/></g><g class="overgrid"/><g class="zerolinelayer" transform="translate(60,60)"><path class="xzl zl crisp" d="M0,0v330" transform="translate(0,0)" style="stroke: rgb(68, 68, 68); stroke-opacity: 1; stroke-width: 1px;"/></g><g class="overzero"/><path class="xlines-below"/><path class="ylines-below"/><g class="overlines-below"/><g class="xaxislayer-below"/><g class="yaxislayer-below"/><g class="overaxes-below"/><g class="plot" transform="translate(60, 60)" clip-path="url(#clip734c25xyplot)"><g class="imagelayer"/><g class="maplayer"/><g class="barlayer"/><g class="carpetlayer"/><g class="boxlayer"/><g class="scatterlayer"><g class="trace scatter trace00c410" style="stroke-miterlimit: 2; opacity: 1;"><path class="js-line" d="M0,16.56L0.44,16.5L1.77,86.86L1.99,75.73L2.43,79.6L2.65,88.5L2.87,89.76L3.09,98.74L3.97,75.92L4.19,81.37L4.42,72.2L4.64,73.07L4.86,72.67L5.08,69.5L5.96,79.54L6.4,78.87L6.62,73.86L7.29,67.88L7.51,69.94L7.73,68.1L7.95,69.45L8.17,69.38L8.39,62.66L9.05,54.22L9.27,56.93L9.49,59.46L10.16,55.73L10.38,56.84L10.6,56.7L10.82,57.47L11.04,54.01L11.48,55.15L11.7,52.42L11.92,52.46L12.14,54.28L12.36,53.78L12.58,56.43L12.81,56.25L13.03,56.64L13.25,59.14L13.47,58.98L13.69,57.01L13.91,57.58L14.13,57.24L14.35,56.16L15.23,58.9L15.45,58.82L15.68,59.01L15.9,60.68L16.12,59.3L16.34,59.96L16.56,61.51L17.22,60.18L17.44,60.84L17.66,60.83L17.88,61.38L18.1,59.43L18.33,59.75L18.55,61.5L19.21,63.44L19.43,62.46L19.65,61.21L21.86,54.7L22.08,54.97L22.96,59.47L23.18,57.18L23.62,56.61L23.84,57.38L24.07,56.79L24.29,57.3L24.51,58.36L26.27,52.4L26.71,53.03L26.94,53.83L27.38,52.77L27.6,54L27.82,54.48L28.04,53.25L28.26,53.4L28.48,52.94L28.7,53.74L28.92,53.56L29.14,54.08L29.36,54.22L29.59,53.4L31.13,52.35L31.35,53.32L32.9,56.79L33.12,55.97L34.22,53.09L34.44,53.51L34.66,54.05L34.88,52.65L35.1,53.05L35.99,52.85L36.21,53.1L37.09,54.44L37.31,52.65L37.97,51.65L38.2,52.07L38.42,51.83L38.64,53.15L39.08,50.5L39.52,50.84L39.74,51.34L40.85,52.15L41.07,51.87L41.51,52.49L41.73,51.62L41.95,51.11L42.61,51.88L42.83,51.5L43.05,51.65L43.72,51.42L43.94,51.05L44.16,51.01L44.38,50.12L45.26,50.16L45.48,50.02L46.81,51.1L47.03,50.25L47.91,50.17L48.13,50.16L49.01,51.23L49.23,50.87L50.56,51.58L50.78,51.41L52.33,47.66L52.55,47.73L53.65,48.55L53.87,48.76L54.75,49.21L54.98,49.2L55.64,48.02L55.86,48.47L56.08,48.86L56.52,50.14L56.96,49.77L57.18,49.79L58.29,49.39L58.51,49.22L58.73,48.71L59.17,49.12L59.39,49.17L60.49,48.55L60.72,48.83L60.94,49.16L62.26,49.97L62.48,202.12L62.92,141.54L63.37,168.02L63.59,159.08L64.47,140.13L64.69,148.63L65.13,157.2L65.35,151.91L65.57,153.63L66.01,145.37L66.24,138.16L66.46,147.03L66.68,136.12L66.9,137.08L67.12,137.36L67.56,126.87L68,128.69L68.22,128.66L68.88,123.35L69.11,128.12L70.43,141.82L70.65,135.91L70.87,136.69L71.09,132.53L71.31,135.85L71.75,132.36L71.98,129.36L72.2,125.8L72.64,130.09L72.86,130.95L73.08,129.94L73.3,130.59L73.52,132.31L73.74,131.12L73.96,131.52L74.18,133.1L74.63,134.3L74.85,131.34L75.95,127.49L76.17,128.6L77.5,131.83L77.72,129.62L78.6,126.1L78.82,127.15L79.7,123.2L79.92,124.25L80.59,126.42L80.81,127.24L82.13,125.5L82.35,126.15L82.57,125.03L83.01,125.39L83.24,125.71L84.12,127.62L84.34,127.36L84.56,126.14L85,127.28L85.22,126.49L85.44,125.77L85.89,126.06L86.11,124.64L86.77,124.22L86.99,123.55L87.43,123.49L87.65,123.06L88.31,123.58L88.53,122.41L88.76,121.61L89.2,122.19L89.42,122.26L89.86,121.35L90.08,121.05L90.3,121.79L90.52,120.58L90.74,120.8L90.96,120.63L91.85,121.78L92.07,120.13L92.51,121.32L92.73,121.79L93.17,120.94L93.61,121.2L93.83,121.14L94.27,121.41L94.5,122.01L95.6,119.84L95.82,120.85L96.04,120.93L96.26,121.91L97.59,123.47L97.81,123.06L98.03,123.08L99.13,123.76L99.35,123.61L100.24,123.16L100.46,121.53L101.56,120.27L101.78,120.38L102.89,118.59L103.11,118.91L103.55,118.57L103.77,118L103.99,118.28L104.43,117.87L104.65,117.32L106.2,116.55L106.42,117.36L106.64,117.14L106.86,117.74L107.08,117.95L109.07,117.6L109.29,116.7L110.17,116.39L110.39,116.06L110.61,115.52L111.05,116.01L111.28,115.91L112.16,114.66L112.38,114.26L112.6,113.51L112.82,114.32L113.04,114.9L115.47,114.08L115.69,114.65L117.24,115.37L117.46,115.09L118.12,115.85L118.34,116.39L119.44,117.39L119.67,116.61L119.89,116.89L120.11,115.93L121.21,114.64L121.43,114.79L122.98,114.04L123.2,114.25L124.08,114.07L124.3,114.35L124.52,114.49L124.74,113.96L124.96,102.16L125.85,171.92L126.07,169.9L126.29,169.07L126.51,162.19L127.61,175.55L127.83,173.33L128.5,179.05L128.72,176.97L128.94,176.25L129.38,176.52L129.6,174.41L129.82,175.93L130.48,185.26L130.7,183L130.93,177.63L131.15,175.97L131.37,178.61L131.59,180.66L132.03,180.88L132.25,179.96L132.69,179.67L133.57,184.96L133.8,183.86L134.9,187.7L135.12,186.86L135.56,188.94L135.78,187.68L136,187.45L136.44,187.06L136.67,187.35L136.89,188.5L137.33,187.68L137.55,185.32L137.77,185.42L137.99,187.12L138.43,186.03L138.65,187.46L139.54,189.1L139.76,188.04L140.64,186.14L140.86,185.61L141.74,184.12L141.96,184.65L142.19,184.32L142.41,185.49L142.85,184.66L143.07,185.04L143.29,186.13L143.51,186.86L144.17,186.48L144.39,186.18L145.5,188.25L145.72,186.97L146.38,183.81L146.6,184.82L146.82,185.54L147.93,187.38L148.15,186.67L148.59,187.36L148.81,186.96L149.03,186.81L149.91,186.62L150.13,186.82L150.35,187.53L150.8,187.03L151.02,186.92L152.12,187.18L152.34,186.3L153,187.37L153.22,186.91L153.44,187.33L154.55,186.19L154.77,186.85L156.54,188.49L156.76,188.61L157.42,190.69L157.64,190.25L157.86,189.77L158.96,190.98L159.19,191.16L161.39,193.79L161.61,193.58L163.16,193.38L163.38,193.9L163.6,193.99L163.82,193.24L165.37,191.68L165.59,192.1L165.81,192.1L166.25,192.98L166.47,192.59L166.69,192.28L167.8,192.48L168.02,192.03L168.9,193.05L169.12,192.7L169.34,192.05L170,192.04L170.22,191.22L170.89,191.62L171.11,191.02L172.21,189.73L172.43,190L175.3,192.06L175.52,192.2L176.63,193.46L176.85,193.14L177.07,193.12L178.39,193.15L178.61,193.42L179.28,193.24L179.5,193.16L180.38,193.32L180.6,193.24L182.81,191.91L183.03,191.99L186.34,194.93L186.56,194.89L187.22,195.29L187.45,272.12L188.77,218.52L188.99,222.73L189.21,221.55L189.65,208.66L189.87,213.08L190.1,216.64L191.2,224.99L191.42,226.19L191.86,229.91L192.08,221.49L192.3,223.53L192.52,220.12L192.74,219.85L193.85,226.33L194.07,224.98L194.29,222.92L195.39,218.37L195.61,219.51L196.06,217.01L196.28,219.8L197.16,215.11L197.38,216.57L197.82,217.04L198.04,214.21L198.26,214.73L198.48,213.34L198.71,212.28L198.93,211.79L199.15,212.81L199.37,214.29L199.59,212.83L200.03,213.67L200.25,214.22L201.13,215.69L201.36,215.39L202.24,211.09L202.46,211.89L203.56,213.14L203.78,212.02L204.45,213.88L204.67,213.69L204.89,213.03L205.11,213.02L205.33,211.41L205.55,212.12L205.77,210.18L206.21,209.59L206.43,210.12L206.65,211.45L207.32,211.87L207.54,210.93L208.2,210.72L208.42,211.25L209.52,212.34L209.74,211.81L210.41,210.35L210.63,210.7L210.85,210.11L211.51,211.16L211.73,210.97L211.95,210.28L214.38,213.65L214.82,213.1L215.04,213.24L215.71,211.85L215.93,211.89L216.15,212.3L217.25,210.39L217.47,210.56L217.69,211.52L218.13,210.74L218.58,211.28L218.8,211.16L220.12,211.31L220.34,210.64L221,211L221.23,211.48L222.77,212.51L222.99,212.11L223.43,212.43L223.65,212.18L223.88,211.06L225.42,212.3L225.64,211.69L226.52,210.41L226.75,210.87L227.19,211.75L227.41,211.6L227.63,211.2L228.95,212.16L229.17,212.54L230.5,212.51L230.72,212.56L231.82,212.5L232.04,212.19L233.37,212.28L233.59,211.9L234.25,211.52L234.47,212.02L234.91,211.58L235.14,211.48L236.24,212.23L236.46,212.37L237.34,211.46L237.56,211.89L237.78,211.95L239.99,211.33L240.21,210.85L240.65,210.46L240.88,210.81L241.1,210.82L241.32,210.54L241.76,211.1L241.98,211.28L245.51,213.2L245.73,212.67L248.16,212.55L248.38,212.24L249.71,212.16L249.93,247L250.81,212.03L251.03,229.03L251.25,232.69L251.47,220.03L251.91,213.39L252.14,217.64L252.36,218.11L252.58,212.76L253.02,216.81L253.24,216.2L253.68,221.99L254.12,218.62L254.34,215.32L254.56,215.37L254.78,216.48L255.01,216.14L255.23,217.07L255.45,217.1L255.67,219.33L255.89,216.93L256.11,217.15L256.33,217.68L256.99,212.05L257.21,215.13L257.43,215.08L258.1,213.5L258.32,214.88L258.54,214.51L258.76,215.79L259.2,216.13L259.64,214.4L259.86,214.9L260.97,211.38L261.19,212.89L262.29,216.92L262.51,216.88L262.73,217.83L263.17,217.11L263.4,215.49L263.84,216.13L264.06,214.46L264.5,211.78L264.94,212.72L265.16,212.69L265.38,212.62L265.6,210.7L266.27,208.29L266.49,208.63L266.71,209.99L267.15,207.35L267.37,209.22L267.59,210.07L267.81,209.89L268.03,211.2L268.25,211.43L268.47,210.69L268.69,212.19L268.92,213.31L269.14,210.86L269.36,210.97L269.58,211.9L270.02,211.6L270.24,210.96L270.46,210.63L270.68,212.01L271.56,212.06L271.79,212.68L272.89,213.44L273.11,214.02L273.55,215.39L273.77,214.77L273.99,213.9L275.32,215.98L275.54,214.89L276.2,212.81L276.42,213.41L276.64,213.95L277.3,213.16L277.53,212.61L278.85,212.6L279.07,213.02L279.51,213.47L279.73,213.94L281.5,216.75L281.72,216.49L281.94,215.62L283.71,216.45L283.93,217.07L284.15,217.46L284.37,216.89L284.59,216.49L285.47,216.56L285.69,216.12L286.8,214.83L287.02,215.01L287.24,214.82L287.46,215.38L287.68,214.6L287.9,213.67L288.34,212.91L288.56,213.5L288.79,214.37L289.67,214.62L289.89,214.33L290.33,214.19L290.55,213.65L291.44,214.05L291.66,214.04L292.76,214.29L292.98,214.49L294.53,215.86L294.75,215.68L295.63,215.08L295.85,215.31L296.07,215.28L296.51,215.45L296.73,215.78L296.95,216.44L297.4,215.69L297.62,215.28L299.16,215.33L299.38,215.34L300.49,214.12L300.71,214.2L301.15,214.4L301.37,213.68L302.25,214.48L302.47,214.01L302.7,213.83L303.58,214.27L303.8,214.48L304.9,214.86L305.12,214.83L306.23,215.03L306.45,214.45L307.99,213.18L308.21,213.48L310.64,211.58L310.86,211.86L311.75,211.86L311.97,211.92L312.19,211.8L312.41,187.09L312.63,188.53L312.85,187.87L313.07,199.01L313.29,195.52L313.73,196.22L313.96,206.63L315.06,222.6L315.28,214.59L316.83,208.7L317.05,213.35L317.49,213.1L318.37,220.94L318.59,218.85L318.81,221.25L319.03,217.82L319.25,215.42L319.47,211.13L320.14,211.68L320.36,213.36L320.58,213.95L320.8,213.83L321.02,212.85L321.24,212.5L321.68,213.08L321.9,213.58L322.12,213.9L322.34,215.81L322.57,215L322.79,217.18L323.01,217.25L323.23,218.18L323.67,216.72L323.89,217.98L324.11,218.53L324.33,214.82L324.77,216.24L324.99,216.41L325.22,216.4L325.44,214.32L325.66,213.87L325.88,214.1L326.1,215.52L326.76,213.87L326.98,215.44L327.2,215.17L327.42,216.16L328.31,214.18L328.53,214.96L328.75,215.48L328.97,215.36L329.19,213.64L330.96,215.86L331.18,215.17L332.06,216.69L332.28,216.57L332.5,215.12L332.72,213.89L332.94,215.36L333.38,214.21L333.6,214.01L334.05,213.4L334.27,213.98L334.49,215.27L334.71,215.6L335.15,215L335.37,213.86L336.03,212.61L336.25,213.99L336.92,212.98L337.14,213.72L337.36,213.32L338.46,212.46L338.68,212.83L338.9,213.1L339.79,214.43L340.01,214.11L340.23,214.09L341.11,214.41L341.33,213.67L341.55,214.38L341.99,213.8L342.22,214L342.88,214.06L343.1,213.75L343.98,213.46L344.2,213.38L344.42,214.43L344.86,214.1L345.09,213.57L346.41,212.56L346.63,213.01L348.62,210.24L348.84,210.29L349.94,211.71L350.16,211.28L350.83,210.68L351.05,211.25L351.27,211.74L351.49,210.63L351.71,211.04L351.93,211.31L353.25,211.47L353.48,211.18L353.92,210.38L354.14,210.84L354.36,211.22L355.24,210.15L355.46,210.68L355.68,210.81L357.45,209.63L357.67,210.2L359,211.58L359.22,211.43L360.54,212.9L360.76,212.49L362.53,212.63L362.75,212.62L364.07,213.25L364.29,213.61L365.62,213.14L365.84,213.47L367.83,214.53L368.05,214.16L369.15,213.48L369.37,213.43L371.8,213.5L372.02,214.01L374.67,212.85L374.89,234.52L375.11,227.34L375.33,242.89L375.55,242.03L376.66,207.93L376.88,210.41L377.1,206.78L377.32,203.56L377.54,206.35L377.76,212.21L377.98,208.11L378.2,210.25L378.42,217.26L378.64,216.48L378.87,217.85L379.09,213.8L379.97,207.07L380.19,209.46L380.41,208.4L380.63,208.73L380.85,203.74L382.18,209.55L382.4,207.96L382.62,205.31L383.06,208.66L383.28,207.3L383.94,212.64L384.16,208.23L384.39,208.4L384.61,207.81L384.83,207.56L385.71,210.85L385.93,213.85L386.37,216.03L386.59,215.37L386.81,214.92L387.92,217.71L388.14,218.26L388.58,218.7L388.8,219.97L389.46,220.33L389.68,219.38L390.35,220.09L390.57,219.97L390.79,218.59L391.23,219.25L391.45,218.36L391.89,217.15L392.11,217.68L392.33,218.14L393.66,216.4L393.88,217.69L394.1,216.95L394.32,217.28L394.54,218.35L394.98,217.83L395.2,219.06L395.42,219.29L395.65,218.32L396.09,219.76L396.31,219.68L396.53,218.09L396.75,218.54L396.97,217.88L397.19,217.58L397.63,217.12L397.85,217.44L398.07,218.05L398.29,218.79L398.52,218.09L398.74,216.87L399.4,216.24L399.62,216.67L399.84,217.06L400.06,216.35L400.28,216.08L400.72,216.6L400.94,215.81L401.16,215.3L402.05,214.04L402.27,214.38L402.49,213.26L402.93,213.72L403.15,213.89L403.81,213.69L404.04,212.59L404.26,212.44L404.48,212.97L404.7,213.34L405.58,213.42L405.8,213.8L407.13,215.06L407.35,214.58L408.45,213.55L408.67,214.02L409.33,213.97L409.55,213.57L410.22,214.22L410.44,213.45L411.32,212.74L411.54,213.21L411.76,213.48L413.53,214.2L413.75,213.82L414.63,214.17L414.85,213.89L415.07,213.58L415.52,213.74L415.74,213.4L415.96,213.07L416.18,212.65L416.4,213.25L416.62,213.43L416.84,213.02L417.28,213.75L417.5,213.83L418.17,213.93L418.39,213.03L419.27,213.9L419.49,213.46L421.26,213.58L421.48,213.56L421.7,213.1L422.14,213.48L422.36,213.68L424.35,213.75L424.57,214.17L425.23,214.37L425.45,214.79L426.11,214.21L426.33,214.01L426.78,213.65L427,214.1L427.22,214L428.32,214.66L428.54,214.7L429.65,215.16L429.87,214.97L431.19,214.43L431.41,214.56L433.4,214.92L433.62,215.15L434.5,215.19L434.72,214.77L435.39,213.48L435.61,213.61L435.83,213.95L436.93,214.3L437.15,214.52L437.37,225.34L437.59,198.06L438.48,232.13L438.7,240.16L438.92,238.61L439.14,231.24L439.36,223.56L439.8,231.08L440.02,236.59L440.24,238.78L440.46,234.5L440.69,229.27L440.91,229.09L441.13,232.28L441.35,231.36L441.57,233.64L441.79,237.05L442.01,239.73L442.23,237.79L442.45,231.6L442.67,232.55L442.89,230.37L443.11,228.58L444.22,233.91L444.44,230.53L445.32,227.5L445.54,227.9L445.98,225.62L446.2,227.21L446.43,229.09L446.87,227.09L447.09,228.78L447.31,228.81L447.75,227.86L447.97,230.07L448.19,230.92L448.41,229.8L448.63,230.73L448.85,229.14L449.96,233.17L450.18,233.97L450.84,233.84L451.06,232.59L452.83,226.25L453.05,225.68L453.49,226.8L453.71,226.26L453.93,225.67L454.37,222.21L454.82,222.75L455.04,222.8L455.26,223.81L455.92,223.4L456.14,223.76L456.58,224.58L456.8,224.32L457.02,224.07L457.46,223.95L457.69,223.05L459.01,222.18L459.23,221.98L459.45,222.51L459.67,221.68L459.89,220.75L460.33,220.49L460.56,221.22L460.78,220.65L461.22,221.08L461.44,221.61L462.98,220.37L463.21,219.68L463.87,221.61L464.31,221.17L464.53,220.95L464.75,221.53L464.97,219.54L465.85,217.56L466.08,218.51L467.62,220.52L467.84,220.04L468.72,219.77L468.95,219.1L469.61,218.79L469.83,219.35L470.27,220.17L470.71,219.62L470.93,219.02L471.82,218.05L472.26,218.43L472.48,218.88L473.58,218.4L473.8,218.54L474.24,219.73L474.69,219.17L474.91,218.75L475.57,219.49L475.79,218.92L476.01,218.61L476.23,219.14L476.45,219.49L476.67,219.88L477.11,219.52L477.34,219.3L478,219.32L478.22,220.01L479.54,220.63L479.76,220.28L480.21,219.63L480.43,219.97L480.65,220.48L481.09,220.03L481.31,220.37L481.53,220.71L484.18,219.34L484.4,219.37L486.83,217.39L487.05,217.58L487.93,217.9L488.15,218.02L488.6,217.59L489.04,218.04L489.26,218.06L490.58,216.91L490.8,217.15L491.69,217.35L491.91,217.05L492.79,216.72L493.01,216.63L495,215.6L495.22,215.39L495.88,215.21L496.1,214.81L497.43,214.7L497.65,214.99L499.19,215.96L499.41,215.41L499.63,215.21L499.86,307.07L500.08,252.22L500.74,273.8L500.96,262L501.4,253.14L501.62,236.47L501.84,234.28L502.06,236.28L502.28,239.13L502.5,239.34L502.73,242.22L503.61,230.99L503.83,231.1L504.71,222.14L504.93,224.05L505.15,223.06L505.6,221.31L505.82,220.75L506.92,228.91L507.14,228.36L508.25,224.99L508.47,225.01L508.69,224.71L508.91,222.36L509.79,223.35L510.01,221.37L510.67,225.31L510.89,224.16L511.12,222.81L511.34,225.09L511.56,223.32L511.78,220.38L512,222.28L512.66,221.84L512.88,222.8L513.54,223.34L513.76,221.91L514.87,217.3L515.09,218.43L515.53,217.43L515.75,218.28L515.97,219.58L516.19,219.15L516.41,219.82L516.63,219.46L516.86,220.06L517.08,220.35L517.3,219.96L517.52,219.03L517.74,220.38L517.96,219.86L518.18,218.21L518.62,219.79L518.84,218.14L519.06,217.88L519.28,217.9L519.51,217.14L520.39,218.67L520.61,216.36L521.27,216.19L521.49,215.69L521.93,215.84L522.15,214.52L522.38,213.86L522.82,214.06L523.04,214.75L523.48,213.38L523.92,214.03L524.14,213.8L524.8,214.85L525.02,213.9L526.13,215.03L526.35,214.66L527.01,214.31L527.23,212.88L527.67,213.44L527.89,214.16L529.22,214.57L529.44,215.56L530.1,215.2L530.32,214.74L530.54,214.4L530.77,214.78L530.99,212.62L532.31,211.48L532.53,212.1L532.97,211.71L533.19,211.27L534.74,211.05L534.96,211.87L537.17,211.78L537.39,211.34L538.49,212.77L538.71,212.55L540.48,214.72L540.7,214.51L542.69,212.66L542.91,212.77L546,214.69L546.22,214.59L546.88,213.88L547.1,214.11L547.32,214.23L548.43,214.42L548.65,214.65L549.53,215.19L549.75,214.91L549.97,214.61L551.74,214.9L551.96,215.24L552.62,215.02L552.84,215.25L554.17,214.96L554.39,215.28L554.83,214.77L555.05,215.26L555.27,215.65L557.92,216.98L558.14,216.85L558.36,217.24L558.8,216.61L559.03,216.59L561.01,216.6L561.23,216.54L562.12,216.73L562.34,313.5L563.22,189.47L563.44,208.59L563.66,214.59L564.77,230.29L564.99,216.99L566.53,202.57L566.75,201.38L566.97,199.29L567.19,200.28L567.42,205.48L568.52,217.06L568.74,216.28L569.84,222.48L570.06,220.48L570.29,220.84L570.51,218.42L571.39,214.64L571.61,214.7L572.49,218.37L572.71,217.93L572.93,216.29L573.16,215.81L573.38,216.41L573.6,216.84L574.04,218.72L574.48,218.63L574.7,217.82L575.58,217.73L575.81,218.14L576.25,217.88L576.47,215.99L576.69,215.27L576.91,216.43L577.13,216.4L577.79,212.41L578.01,213.36L578.23,214.16L578.68,216.49L579.12,215.91L579.34,215.62L580,217.38" style="vector-effect: non-scaling-stroke; fill: none; stroke: rgb(31, 119, 180); stroke-opacity: 1; stroke-width: 2px; opacity: 1;"/><g class="points"/></g><g class="trace scatter trace797237" style="stroke-miterlimit: 2; opacity: 1;"><path class="js-line" d="M0,16.56L62.48,140.99L124.96,108.32L187.45,165.41L249.93,167.93L312.41,168.4L374.89,167.4L437.37,169.75L499.86,168.15L562.34,168.29" style="vector-effect: non-scaling-stroke; fill: none; stroke: rgb(255, 127, 14); stroke-opacity: 1; stroke-width: 2px; opacity: 1;"/><g class="points"/></g></g></g><g class="overplot"/><path class="xlines-above crisp" transform="translate(60,60)" d="M-1,330.5H580" style="fill: none; stroke-width: 1px; stroke: rgb(0, 0, 0); stroke-opacity: 0;"/><path class="ylines-above crisp" transform="translate(60,60)" d="M-0.5,0V330" style="fill: none; stroke-width: 1px; stroke: rgb(0, 0, 0); stroke-opacity: 0;"/><g class="overlines-above"/><g class="xaxislayer-above" transform="translate(60,60)"><g class="xtick"><text text-anchor="middle" x="0" y="343" transform="translate(0,0)" style="font-family: 'Open Sans', verdana, arial, sans-serif; font-size: 12px; fill: rgb(68, 68, 68); fill-opacity: 1; white-space: pre;">0</text></g><g class="xtick"><text text-anchor="middle" x="0" y="343" transform="translate(110.39,0)" style="font-family: 'Open Sans', verdana, arial, sans-serif; font-size: 12px; fill: rgb(68, 68, 68); fill-opacity: 1; white-space: pre;">500</text></g><g class="xtick"><text text-anchor="middle" x="0" y="343" transform="translate(220.78,0)" style="font-family: 'Open Sans', verdana, arial, sans-serif; font-size: 12px; fill: rgb(68, 68, 68); fill-opacity: 1; white-space: pre;">1000</text></g><g class="xtick"><text text-anchor="middle" x="0" y="343" transform="translate(331.18,0)" style="font-family: 'Open Sans', verdana, arial, sans-serif; font-size: 12px; fill: rgb(68, 68, 68); fill-opacity: 1; white-space: pre;">1500</text></g><g class="xtick"><text text-anchor="middle" x="0" y="343" transform="translate(441.57,0)" style="font-family: 'Open Sans', verdana, arial, sans-serif; font-size: 12px; fill: rgb(68, 68, 68); fill-opacity: 1; white-space: pre;">2000</text></g><g class="xtick"><text text-anchor="middle" x="0" y="343" transform="translate(551.96,0)" style="font-family: 'Open Sans', verdana, arial, sans-serif; font-size: 12px; fill: rgb(68, 68, 68); fill-opacity: 1; white-space: pre;">2500</text></g></g><g class="yaxislayer-above" transform="translate(60,60)"><g class="ytick"><text text-anchor="end" x="-1" y="4.199999999999999" transform="translate(0,317.25)" style="font-family: 'Open Sans', verdana, arial, sans-serif; font-size: 12px; fill: rgb(68, 68, 68); fill-opacity: 1; white-space: pre;">30k</text></g><g class="ytick"><text text-anchor="end" x="-1" y="4.199999999999999" transform="translate(0,272.48)" style="font-family: 'Open Sans', verdana, arial, sans-serif; font-size: 12px; fill: rgb(68, 68, 68); fill-opacity: 1; white-space: pre;">35k</text></g><g class="ytick"><text text-anchor="end" x="-1" y="4.199999999999999" transform="translate(0,227.71)" style="font-family: 'Open Sans', verdana, arial, sans-serif; font-size: 12px; fill: rgb(68, 68, 68); fill-opacity: 1; white-space: pre;">40k</text></g><g class="ytick"><text text-anchor="end" x="-1" y="4.199999999999999" transform="translate(0,182.94)" style="font-family: 'Open Sans', verdana, arial, sans-serif; font-size: 12px; fill: rgb(68, 68, 68); fill-opacity: 1; white-space: pre;">45k</text></g><g class="ytick"><text text-anchor="end" x="-1" y="4.199999999999999" transform="translate(0,138.17)" style="font-family: 'Open Sans', verdana, arial, sans-serif; font-size: 12px; fill: rgb(68, 68, 68); fill-opacity: 1; white-space: pre;">50k</text></g><g class="ytick"><text text-anchor="end" x="-1" y="4.199999999999999" transform="translate(0,93.4)" style="font-family: 'Open Sans', verdana, arial, sans-serif; font-size: 12px; fill: rgb(68, 68, 68); fill-opacity: 1; white-space: pre;">55k</text></g><g class="ytick"><text text-anchor="end" x="-1" y="4.199999999999999" transform="translate(0,48.63)" style="font-family: 'Open Sans', verdana, arial, sans-serif; font-size: 12px; fill: rgb(68, 68, 68); fill-opacity: 1; white-space: pre;">60k</text></g><g class="ytick"><text text-anchor="end" x="-1" y="4.199999999999999" transform="translate(0,3.86)" style="font-family: 'Open Sans', verdana, arial, sans-serif; font-size: 12px; fill: rgb(68, 68, 68); fill-opacity: 1; white-space: pre;">65k</text></g></g><g class="overaxes-above"/></g></g><g class="ternarylayer"/><g class="geolayer"/><g class="layer-above"><g class="imagelayer"/><g class="shapelayer"/></g><g class="pielayer"/><g class="glimages"/><defs id="topdefs-734c25"><g class="clips"/></defs><g class="infolayer"><g class="g-gtitle"/><g class="g-xtitle"/><g class="g-ytitle"/></g></svg>