<svg class="main-svg" xmlns="http://www.w3.org/2000/svg" xmlns:xlink="http://www.w3.org/1999/xlink" width="700" height="450" style="" viewBox="0 0 700 450"><rect x="0" y="0" width="700" height="450" style="fill: rgb(255, 255, 255); fill-opacity: 1;"/><defs id="defs-a91b5b"><g class="clips"><clipPath class="plotclip" id="clipa91b5bxyplot"><rect width="580" height="330"/></clipPath><clipPath class="axesclip" id="clipa91b5bx"><rect x="60" y="0" width="580" height="450"/></clipPath><clipPath class="axesclip" id="clipa91b5by"><rect x="0" y="60" width="700" height="330"/></clipPath><clipPath class="axesclip" id="clipa91b5bxy"><rect x="60" y="60" width="580" height="330"/></clipPath></g><g class="gradients"/></defs><g class="bglayer"><rect class="bg" x="60" y="60" width="580" height="330" style="fill: rgb(255, 255, 255); fill-opacity: 1; stroke-width: 0;"/></g><g class="layer-below"><g class="imagelayer"/><g class="shapelayer"/></g><g class="cartesianlayer"><g class="subplot xy"><g class="layer-subplot"><g class="shapelayer"/><g class="imagelayer"/></g><g class="gridlayer" transform="translate(60,60)"><path class="xgrid crisp" d="M0,0v330" transform="translate(84,0)" style="stroke: rgb(238, 238, 238); stroke-opacity: 1; stroke-width: 1px;"/><path class="xgrid crisp" d="M0,0v330" transform="translate(167.99,0)" style="stroke: rgb(238, 238, 238); stroke-opacity: 1; stroke-width: 1px;"/><path class="xgrid crisp" d="M0,0v330" transform="translate(251.99,0)" style="stroke: rgb(238, 238, 238); stroke-opacity: 1; stroke-width: 1px;"/><path class="xgrid crisp" d="M0,0v330" transform="translate(335.99,0)" style="stroke: rgb(238, 238, 238); stroke-opacity: 1; stroke-width: 1px;"/><path class="xgrid crisp" d="M0,0v330" transform="translate(419.99,0)" style="stroke: rgb(238, 238, 238); stroke-opacity: 1; stroke-width: 1px;"/><path class="xgrid crisp" d="M0,0v330" transform="translate(503.98,0)" style="stroke: rgb(238, 238, 238); stroke-opacity: 1; stroke-width: 1px;"/><path class="ygrid crisp" d="M0,0h580" transform="translate(0,309.69)" style="stroke: rgb(238, 238, 238); stroke-opacity: 1; stroke-width: 1px;"/><path class="ygrid crisp" d="M0,0h580" transform="translate(0,272.23)" style="stroke: rgb(238, 238, 238); stroke-opacity: 1; stroke-width: 1px;"/><path class="ygrid crisp" d="M0,0h580" transform="translate(0,234.78)" style="stroke: rgb(238, 238, 238); stroke-opacity: 1; stroke-width: 1px;"/><path class="ygrid crisp" d="M0,0h580" transform="translate(0,197.33)" style="stroke: rgb(238, 238, 238); stroke-opacity: 1; stroke-width: 1px;"/><path class="ygrid crisp" d="M0,0h580" transform="translate(0,159.88)" style="stroke: rgb(238, 238, 238); stroke-opacity: 1; stroke-width: 1px;"/><path class="ygrid crisp" d="M0,0h580" transform="translate(0,122.42)" style="stroke: rgb(238, 238, 238); stroke-opacity: 1; stroke-width: 1px;"/><path class="ygrid crisp" d="M0,0h580" transform="translate(0,84.97)" style="stroke: rgb(238, 238, 238); stroke-opacity: 1; stroke-width: 1px;"/><path class="ygrid crisp" d="M0,0h580" transform="translate(0,47.52)" style="stroke: rgb(238, 238, 238); stroke-opacity: 1; stroke-width: 1px;"/><path class="ygrid crisp" d="M0,0h580" transform="translate(0,10.06)" style="stroke: rgb(238, 238, 238); stroke-opacity: 1; stroke-width: 1px;"/></g><g class="overgrid"/><g class="zerolinelayer" transform="translate(60,60)"><path class="xzl zl crisp" d="M0,0v330" transform="translate(0,0)" style="stroke: rgb(68, 68, 68); stroke-opacity: 1; stroke-width: 1px;"/></g><g class="overzero"/><path class="xlines-below"/><path class="ylines-below"/><g class="overlines-below"/><g class="xaxislayer-below"/><g class="yaxislayer-below"/><g class="overaxes-below"/><g class="plot" transform="translate(60, 60)" clip-path="url(#clipa91b5bxyplot)"><g class="imagelayer"/><g class="maplayer"/><g class="barlayer"/><g class="carpetlayer"/><g class="boxlayer"/><g class="scatterlayer"><g class="trace scatter trace17869d" style="stroke-miterlimit: 2; opacity: 1;"><path class="js-line" d="M0,35.76L0.42,16.5L0.84,55.59L3.36,135.68L3.78,142.33L11.34,199.5L11.76,200.61L14.28,209.74L14.7,210.66L18.48,221.93L18.9,222.49L21,227.97L21.42,228.92L25.2,235.54L25.62,235.92L28.14,239.61L28.56,239.89L29.4,240.75L29.82,241.48L30.66,242.14L31.08,242.73L33.6,245.14L34.02,245.55L36.96,247.64L37.38,248.01L40.74,250.93L41.16,251.14L43.68,252.16L44.1,252.41L47.46,254.55L47.88,254.63L57.96,259.69L58.38,259.77L70.14,263.26L70.56,263.26L74.34,264.02L74.76,264.09L82.32,265.85L82.74,266.01L97.44,269.22L97.86,269.24L106.26,270.55L106.68,270.7L118.44,272.08L118.86,304.69L119.28,305.41L119.7,303.38L120.54,299.31L120.96,298.75L122.22,298.81L122.64,298.1L123.9,298.6L124.32,298.65L126.42,296.61L126.84,296.79L128.1,296.93L128.52,296.51L131.04,295.3L131.46,295.31L132.72,295.22L133.14,294.72L138.18,294.69L138.6,294.42L141.12,294.77L141.54,294.52L144.9,294.58L145.31,294.61L149.51,294.4L149.93,294.28L152.03,294.45L152.45,294.6L159.17,295.34L159.59,295L161.69,294.36L162.11,294.35L165.47,294.35L165.89,294.42L167.15,294.39L167.57,294.18L171.35,294.46L171.77,294.39L181.43,294.58L181.85,294.57L189.41,294.8L189.83,294.71L193.61,294.81L194.03,294.81L199.91,294.84L200.33,294.89L205.37,294.78L205.79,294.85L223.85,295.17L224.27,295.22L237.29,295.19L237.71,301.57L238.97,305.62L239.39,304.84L240.23,303.74L240.65,305.06L241.07,305.32L241.49,304.67L241.91,304.78L242.33,305.7L242.75,304.59L243.17,305L243.59,304.83L244.43,304.84L244.85,304.44L246.95,304.09L247.37,304.2L248.63,304.46L249.05,304.48L250.31,304.5L250.73,304.1L251.57,303.75L251.99,303.6L252.83,303.66L253.25,303.69L262.07,303.89L262.49,303.69L264.59,303.81L265.01,303.56L267.53,303.33L267.95,303.45L271.73,303.17L272.15,303.29L276.35,303.09L276.77,303.03L284.33,303.58L284.75,303.58L288.53,303.79L288.95,303.76L315.41,303.24L315.83,303.26L331.37,303.21L331.79,303.25L335.15,303.29L335.57,303.27L356.15,302.86L356.57,298.1L356.99,308.39L357.41,307.8L357.83,302.37L359.51,307.97L359.93,308.31L360.35,307.88L360.77,308.48L361.19,308.98L361.61,309.64L362.03,309.29L362.45,309.09L363.29,309.86L363.71,309.11L364.55,308.99L364.97,308.44L367.49,308.43L367.91,308.28L369.59,308.46L370.01,308.16L371.69,308.12L372.11,308.11L390.59,307.48L391.01,307.28L475,307.74L475.42,306.19L476.68,312.18L477.1,312.13L477.52,313.5L477.94,312.65L478.36,312.94L479.2,312.84L479.62,312.29L480.04,313.11L480.46,312.66L480.88,312.66L481.72,312.62L482.14,312.19L482.56,312.43L482.98,311.67L484.66,312.3L485.08,311.84L489.28,310.84L489.7,310.69L490.54,310.87L490.96,310.71L493.06,310.83L493.48,310.78L496,311.28L496.42,311.17L500.2,311.84L500.62,311.93L503.56,311.29L503.98,311.36L506.5,311L506.92,311.17L512.8,311.45L513.22,311.45L533.8,311.09L534.22,311.16L543.46,311.25L543.88,311.28L558.16,311.31L558.58,311.35L578.74,311.62L579.16,311.67L580,311.65" style="vector-effect: non-scaling-stroke; fill: none; stroke: rgb(31, 119, 180); stroke-opacity: 1; stroke-width: 2px; opacity: 1;"/><g class="points"/></g><g class="trace scatter trace59f145" style="stroke-miterlimit: 2; opacity: 1;"><path class="js-line" d="M0,35.76L118.86,302.02L237.71,301.39L475.42,310.18" style="vector-effect: non-scaling-stroke; fill: none; stroke: rgb(255, 127, 14); stroke-opacity: 1; stroke-width: 2px; opacity: 1;"/><g class="points"/></g></g></g><g class="overplot"/><path class="xlines-above crisp" transform="translate(60,60)" d="M-1,330.5H580" style="fill: none; stroke-width: 1px; stroke: rgb(0, 0, 0); stroke-opacity: 0;"/><path class="ylines-above crisp" transform="translate(60,60)" d="M-0.5,0V330" style="fill: none; stroke-width: 1px; stroke: rgb(0, 0, 0); stroke-opacity: 0;"/><g class="overlines-above"/><g class="xaxislayer-above" transform="translate(60,60)"><g class="xtick"><text text-anchor="middle" x="0" y="343" transform="translate(0,0)" style="font-family: 'Open Sans', verdana, arial, sans-serif; font-size: 12px; fill: rgb(68, 68, 68); fill-opacity: 1; white-space: pre;">0</text></g><g class="xtick"><text text-anchor="middle" x="0" y="343" transform="translate(84,0)" style="font-family: 'Open Sans', verdana, arial, sans-serif; font-size: 12px; fill: rgb(68, 68, 68); fill-opacity: 1; white-space: pre;">200</text></g><g class="xtick"><text text-anchor="middle" x="0" y="343" transform="translate(167.99,0)" style="font-family: 'Open Sans', verdana, arial, sans-serif; font-size: 12px; fill: rgb(68, 68, 68); fill-opacity: 1; white-space: pre;">400</text></g><g class="xtick"><text text-anchor="middle" x="0" y="343" transform="translate(251.99,0)" style="font-family: 'Open Sans', verdana, arial, sans-serif; font-size: 12px; fill: rgb(68, 68, 68); fill-opacity: 1; white-space: pre;">600</text></g><g class="xtick"><text text-anchor="middle" x="0" y="343" transform="translate(335.99,0)" style="font-family: 'Open Sans', verdana, arial, sans-serif; font-size: 12px; fill: rgb(68, 68, 68); fill-opacity: 1; white-space: pre;">800</text></g><g class="xtick"><text text-anchor="middle" x="0" y="343" transform="translate(419.99,0)" style="font-family: 'Open Sans', verdana, arial, sans-serif; font-size: 12px; fill: rgb(68, 68, 68); fill-opacity: 1; white-space: pre;">1000</text></g><g class="xtick"><text text-anchor="middle" x="0" y="343" transform="translate(503.98,0)" style="font-family: 'Open Sans', verdana, arial, sans-serif; font-size: 12px; fill: rgb(68, 68, 68); fill-opacity: 1; white-space: pre;">1200</text></g></g><g class="yaxislayer-above" transform="translate(60,60)"><g class="ytick"><text text-anchor="end" x="-1" y="4.199999999999999" transform="translate(0,309.69)" style="font-family: 'Open Sans', verdana, arial, sans-serif; font-size: 12px; fill: rgb(68, 68, 68); fill-opacity: 1; white-space: pre;">50k</text></g><g class="ytick"><text text-anchor="end" x="-1" y="4.199999999999999" transform="translate(0,272.23)" style="font-family: 'Open Sans', verdana, arial, sans-serif; font-size: 12px; fill: rgb(68, 68, 68); fill-opacity: 1; white-space: pre;">100k</text></g><g class="ytick"><text text-anchor="end" x="-1" y="4.199999999999999" transform="translate(0,234.78)" style="font-family: 'Open Sans', verdana, arial, sans-serif; font-size: 12px; fill: rgb(68, 68, 68); fill-opacity: 1; white-space: pre;">150k</text></g><g class="ytick"><text text-anchor="end" x="-1" y="4.199999999999999" transform="translate(0,197.33)" style="font-family: 'Open Sans', verdana, arial, sans-serif; font-size: 12px; fill: rgb(68, 68, 68); fill-opacity: 1; white-space: pre;">200k</text></g><g class="ytick"><text text-anchor="end" x="-1" y="4.199999999999999" transform="translate(0,159.88)" style="font-family: 'Open Sans', verdana, arial, sans-serif; font-size: 12px; fill: rgb(68, 68, 68); fill-opacity: 1; white-space: pre;">250k</text></g><g class="ytick"><text text-anchor="end" x="-1" y="4.199999999999999" transform="translate(0,122.42)" style="font-family: 'Open Sans', verdana, arial, sans-serif; font-size: 12px; fill: rgb(68, 68, 68); fill-opacity: 1; white-space: pre;">300k</text></g><g class="ytick"><text text-anchor="end" x="-1" y="4.199999999999999" transform="translate(0,84.97)" style="font-family: 'Open Sans', verdana, arial, sans-serif; font-size: 12px; fill: rgb(68, 68, 68); fill-opacity: 1; white-space: pre;">350k</text></g><g class="ytick"><text text-anchor="end" x="-1" y="4.199999999999999" transform="translate(0,47.52)" style="font-family: 'Open Sans', verdana, arial, sans-serif; font-size: 12px; fill: rgb(68, 68, 68); fill-opacity: 1; white-space: pre;">400k</text></g><g class="ytick"><text text-anchor="end" x="-1" y="4.199999999999999" transform="translate(0,10.06)" style="font-family: 'Open Sans', verdana, arial, sans-serif; font-size: 12px; fill: rgb(68, 68, 68); fill-opacity: 1; white-space: pre;">450k</text></g></g><g class="overaxes-above"/></g></g><g class="ternarylayer"/><g class="geolayer"/><g class="layer-above"><g class="imagelayer"/><g class="shapelayer"/></g><g class="pielayer"/><g class="glimages"/><defs id="topdefs-a91b5b"><g class="clips"/></defs><g class="infolayer"><g class="g-gtitle"/><g class="g-xtitle"/><g class="g-ytitle"/></g></svg>